<svg xmlns="http://www.w3.org/2000/svg" height="36" width="36" viewBox="-4 -4 36 36" id="notifications_active_28" x="36" y="72"><g fill="none" fill-rule="evenodd"><path d="M0 0h28v28H0z" opacity=".04"/><path d="M20.368 11.809C20.368 8.047 17.47 5 14.005 5c-3.467 0-6.373 3.05-6.373 6.806l.004 1.944c0 .793-.309 1.41-.905 2.096-.144.166-.648.703-.673.732C5.308 17.4 5 18.028 5 19.03c0 .46.624.97 1.632.97h14.736c1.008 0 1.632-.51 1.632-.97 0-1.003-.308-1.63-1.056-2.453-.025-.028-.528-.566-.672-.732-.595-.686-.904-1.303-.904-2.095zM18.873 22c-1.006 2.28-2.667 3.5-4.873 3.5s-3.867-1.22-4.873-3.5H6.632C4.599 22 3 20.693 3 19.03c0-1.576.524-2.64 1.579-3.798.048-.053.527-.565.642-.697.31-.357.415-.568.415-.783l-.004-1.943C5.632 6.965 9.412 3 14.005 3c4.592 0 8.363 3.964 8.363 8.809v1.941c0 .217.106.428.415.785.115.132.593.644.641.697C24.477 16.391 25 17.455 25 19.03c0 1.663-1.599 2.97-3.632 2.97zm-2.256 0h-5.234c.657 1.028 1.51 1.5 2.617 1.5 1.108 0 1.96-.472 2.617-1.5z" fill="#2975cc" fill-rule="nonzero"/></g></svg>