<svg xmlns="http://www.w3.org/2000/svg" height="36" width="36" viewBox="-4 -4 36 36" id="newsfeed_active_28" x="72" y="36"><g fill="none" fill-rule="evenodd"><path d="M0 0h28v28H0z" opacity=".04"/><path d="M23 9V7.846c0-1.068-.073-1.449-.283-1.84a1.726 1.726 0 00-.723-.723c-.391-.21-.772-.283-1.84-.283H7.846c-1.068 0-1.449.073-1.84.283a1.727 1.727 0 00-.723.723c-.21.391-.283.772-.283 1.84V9zm0 2H5v9.154c0 1.068.073 1.449.283 1.84.168.314.409.555.723.723.391.21.772.283 1.84.283h12.308c1.068 0 1.449-.073 1.84-.283.314-.168.555-.409.723-.723.21-.391.283-.772.283-1.84zM7.846 3h12.308c1.37 0 2.063.134 2.783.519.663.355 1.19.881 1.544 1.544.385.72.519 1.413.519 2.783v12.308c0 1.37-.134 2.063-.519 2.783a3.726 3.726 0 01-1.544 1.544c-.72.385-1.413.519-2.783.519H7.846c-1.37 0-2.063-.134-2.783-.519a3.726 3.726 0 01-1.544-1.544C3.134 22.217 3 21.524 3 20.154V7.846c0-1.37.134-2.063.519-2.783A3.726 3.726 0 015.063 3.52C5.783 3.134 6.476 3 7.846 3z" fill="#2975cc" fill-rule="nonzero"/></g></svg>